#!OML:ASF F:\VICON\USERDATA\INSTALL\rory3\rory3.ASF
:FULLY-SPECIFIED
:DEGREES
17
root -0.0872527 16.2262 -23.7068 2.8596 -1.03859 6.13728
lowerback 13.1132 0.299403 -10.335
upperback -4.62941 -1.36928 0.981524
thorax -12.3462 0.22176 7.27752
lowerneck -9.19849 -4.94606 -3.5868
upperneck 16.6781 -6.83236 3.49844
head 6.8477 -3.23224 1.1158
rclavicle 1.19022e-014 -2.26615e-014
rhumerus -45.7386 -10.6248 -75.6893
rradius 23.3091
rwrist 6.38967
rhand -8.94279 17.9734
rfingers 7.12502
rthumb 17.0015 -11.3025
lclavicle 1.19022e-014 -2.26615e-014
lhumerus -27.9362 -0.448484 87.7635
lradius 31.2832
lwrist 5.83843
lhand -5.05712 19.745
lfingers 7.12502
lthumb 20.7385 48.6569
rfemur -35.929 22.1912 4.56763
rtibia 24.2473
rfoot -12.2216 -18.7407
rtoes -6.10772
lfemur 15.8795 -11.9099 -35.193
ltibia -2.8625e-014
lfoot -12.0949 8.76351
ltoes 9.99907
18
root -0.108357 16.2217 -23.5918 3.11456 -0.986133 6.13098
lowerback 12.9801 0.308769 -10.4239
upperback -4.64274 -1.35713 0.987708
thorax -12.2838 0.231296 7.32844
lowerneck -9.41059 -5.03513 -3.58873
upperneck 16.7784 -6.96363 3.56307
head 6.92468 -3.28593 1.11813
rclavicle 2.3792e-015 1.82882e-014
rhumerus -46.0657 -10.5741 -75.6009
rradius 22.789
rwrist 5.99047
rhand -8.91064 17.8757
rfingers 7.12502
rthumb 17.0325 -11.3976
lclavicle 2.3792e-015 1.82882e-014
lhumerus -27.9281 -0.630956 87.817
lradius 31.406
lwrist 6.23091
lhand -5.27447 19.6693
lfingers 7.12502
lthumb 20.5297 48.6038
rfemur -36.3876 22.73 4.19019
rtibia 23.7726
rfoot -12.1607 -18.9988
rtoes -6.86632
lfemur 16.0942 -11.6956 -35.0423
ltibia 6.36111e-015
lfoot -12.2674 8.44196
ltoes 9.23559
19
root -0.127125 16.2168 -23.4686 3.2481 -0.539654 6.27553
lowerback 12.8628 0.14679 -10.5995
upperback -4.67807 -1.59049 1.02614
thorax -12.2034 0.133118 7.52106
lowerneck -9.03342 -4.99217 -3.88936
upperneck 16.4546 -6.89993 3.81855
head 6.772 -3.26107 1.26675
rclavicle 4.01297e-015 -1.59028e-014
rhumerus -46.418 -10.3235 -75.4037
rradius 21.8321
rwrist 5.81025
rhand -9.00939 18.4661
rfingers 7.12502
rthumb 16.9374 -10.8154
lclavicle 4.01297e-015 -1.59028e-014
lhumerus -28.0986 -0.208046 87.8138
lradius 31.4221
lwrist 6.22608
lhand -5.2438 19.5358
lfingers 7.12502
lthumb 20.5592 48.4671
rfemur -36.4404 23.1826 3.71769
rtibia 23.3641
rfoot -12.4892 -19.48
rtoes -6.77859
lfemur 16.4805 -11.8347 -35.0847
ltibia -6.36111e-015
lfoot -12.3702 8.05489
ltoes 8.90419
20
root -0.142613 16.2103 -23.3395 3.15606 0.302321 6.29049
lowerback 13.0274 -0.12493 -10.4605
upperback -4.69488 -1.94941 1.04642
thorax -12.2453 -0.0427472 7.55063
lowerneck -8.6634 -4.96304 -4.11971
upperneck 16.1497 -6.86233 4.03965
head 6.62413 -3.2472 1.3897
rclavicle -1.36664e-015 2.14687e-014
rhumerus -46.8534 -11.1415 -74.5529
rradius 20.8512
rwrist 6.82848
rhand -8.97922 19.0612
rfingers 7.12502
rthumb 16.9664 -10.2178
lclavicle -1.36664e-015 2.14687e-014
lhumerus -28.5562 0.255348 87.7981
lradius 31.574
lwrist 5.98453
lhand -4.9949 19.5525
lfingers 7.12502
lthumb 20.7983 48.4578
rfemur -36.0534 23.8621 3.3974
rtibia 23.1606
rfoot -13.4515 -20.1227
rtoes -5.4351
lfemur 17.1657 -12.2941 -35.0209
ltibia -1.27222e-014
lfoot -12.3683 7.61422
ltoes 8.50235
